HIERARCHY
ROOT Hips
{
    OFFSET 0.000000 0.000000 0.000000
    CHANNELS 6 Xposition Yposition Zposition Zrotation Xrotation Yrotation
        JOINT Chest
        {
            OFFSET -0.000000 29.765863 -0.000000
            CHANNELS 3 Zrotation Xrotation Yrotation
            JOINT Neck
            {
                OFFSET -0.000000 22.048780 0.000000
                CHANNELS 3 Zrotation Xrotation Yrotation
                JOINT Head
                {
                    OFFSET -0.000000 10.266670 0.000000
                    CHANNELS 3 Zrotation Xrotation Yrotation
                    End Site
                    {
                        OFFSET -0.000000 15.866677 0.000000
                    }
                }
            }
            JOINT LeftCollar
            {
                OFFSET -0.000000 22.048780 0.000000
                CHANNELS 3 Zrotation Xrotation Yrotation
                JOINT LeftShoulder
                {
                    OFFSET 18.666672 -0.000000 0.000000
                    CHANNELS 3 Zrotation Xrotation Yrotation
                    JOINT LeftElbow
                    {
                        OFFSET 23.656216 0.000000 0.000000
                        CHANNELS 3 Zrotation Xrotation Yrotation
                        JOINT LeftWrist
                        {
                            OFFSET 24.590921 0.000000 0.000000
                            CHANNELS 3 Zrotation Xrotation Yrotation
                            End Site
                            {
                                OFFSET 0.000000 -14.000008 0.000000
                            }
                        }
                    }
                }
            }
            JOINT RightCollar
            {
                OFFSET -0.000000 22.048780 0.000000
                CHANNELS 3 Zrotation Xrotation Yrotation
                JOINT RightShoulder
                {
                    OFFSET -18.666672 0.000000 0.000000
                    CHANNELS 3 Zrotation Xrotation Yrotation
                    JOINT RightElbow
                    {
                        OFFSET -23.656216 0.000000 0.000000
                        CHANNELS 3 Zrotation Xrotation Yrotation
                        JOINT RightWrist
                        {
                            OFFSET -24.590921 0.000000 0.000000
                            CHANNELS 3 Zrotation Xrotation Yrotation
                            End Site
                            {
                                OFFSET -0.000000 -14.000008 0.000000
                            }
                        }
                    }
                }
            }
        }
    JOINT LeftHip
    {
        OFFSET 11.200002 0.000000 0.000000
        CHANNELS 3 Zrotation Xrotation Yrotation
        JOINT LeftKnee
        {
            OFFSET -0.000000 -37.692356 0.000000
            CHANNELS 3 Zrotation Xrotation Yrotation
            JOINT LeftAnkle
            {
                OFFSET -0.000000 -39.524944 0.000000
                CHANNELS 3 Zrotation Xrotation Yrotation
                End Site
                {
                    OFFSET -0.000000 -4.666668 15.866677
                }
            }
        }
    }
    JOINT RightHip
    {
        OFFSET -11.200002 0.000000 0.000000
        CHANNELS 3 Zrotation Xrotation Yrotation
        JOINT RightKnee
        {
            OFFSET -0.000000 -37.692356 0.000000
            CHANNELS 3 Zrotation Xrotation Yrotation
            JOINT RightAnkle
            {
                OFFSET -0.000000 -39.524944 0.000000
                CHANNELS 3 Zrotation Xrotation Yrotation
                End Site
                {
                    OFFSET -0.000000 -4.666668 15.866677
                }
            }
        }
    }
}
MOTION
Frames:    8
Frame Time:    0.010000
-114.117493    84.136703    -74.589577    -2.871574    24.829359    24.173407    8.960140    44.597389    -6.293051    3.290632    -12.537791    5.369447    -12.192618    -15.198444    3.374791    -8.734949    0.232454    -2.679226    -1.670449    4.115984    -92.222939    21.561518    -3.036080    -16.004860    57.642834    28.497070    35.811329    12.993032    0.851994    7.680836    9.457324    25.484015    89.124565    -26.998398    -6.394475    25.617516    -93.764069    -3.401798    -108.002777    -11.749243    -24.780743    -13.216626    0.549335    35.413654    -5.462968    17.818983    -17.260147    14.985535    -3.953405    -46.537575    5.522233    -0.802937    10.485565    9.583352    12.080495    11.096439    -11.822020    
-114.170982    84.192390    -74.334648    -3.030248    24.904100    24.392508    8.946592    44.189621    -6.011743    3.476271    -11.845544    5.245328    -12.546674    -15.646725    3.153477    -8.590539    0.191873    -2.304616    -2.088034    4.515228    -92.636787    22.393105    -3.331562    -16.869524    59.144901    28.168320    36.066078    13.073061    0.822739    7.493332    9.343140    25.585136    88.813957    -27.781153    -6.600928    25.697945    -93.987289    -3.857041    -106.066422    -11.836061    -24.474096    -13.601997    0.238875    35.645630    -4.864705    17.319431    -16.872334    14.481429    -3.830536    -46.432896    5.504820    -0.798143    10.426269    9.494587    11.794196    11.032351    -11.840336    
-114.220001    84.248123    -74.067436    -3.155950    24.954462    24.565104    8.863357    43.805218    -5.643783    3.655798    -11.165975    5.110762    -12.880835    -16.080229    2.926188    -8.490193    0.153861    -1.947081    -2.449629    5.045227    -93.024109    23.098694    -3.620168    -17.806099    60.731983    27.844389    36.304398    13.156288    0.833508    7.254578    9.158473    25.719950    88.496140    -28.463470    -6.775660    25.805269    -94.198334    -4.229434    -104.201286    -11.921632    -24.082888    -13.979484    -0.071989    35.723289    -4.102080    16.916775    -16.375597    14.029054    -3.677061    -46.312565    5.577435    -0.798720    10.405492    9.390364    11.542245    10.939842    -11.884644    
-114.266731    84.305191    -73.790955    -3.251048    24.982189    24.711113    8.738252    43.447571    -5.232993    3.820540    -10.522161    4.974874    -13.177454    -16.485916    2.705398    -8.430886    0.117736    -1.614389    -2.742199    5.674069    -93.388092    23.749613    -3.918016    -18.747746    62.337151    27.516731    36.450581    13.245592    0.816465    6.980844    8.898131    25.938919    88.198975    -29.198111    -6.983256    25.899221    -94.315903    -4.536168    -102.405533    -12.006326    -23.620192    -14.347672    -0.374316    35.643608    -3.201186    16.615927    -15.770646    13.639631    -3.513295    -46.180904    5.709867    -0.806644    10.430784    9.280602    11.327107    10.814516    -11.947631    
-114.313110    84.363594    -73.507744    -3.314281    24.988647    24.837875    8.578934    43.122120    -4.800717    3.961501    -9.931886    4.842128    -13.421361    -16.853884    2.499925    -8.409283    0.082909    -1.316156    -2.961847    6.370625    -93.725677    24.322664    -4.198158    -19.644707    63.913055    27.164984    36.494919    13.331970    0.806890    6.684443    8.600973    26.188725    87.910339    -29.792105    -7.141890    26.007530    -94.450417    -4.741841    -100.729050    -12.087770    -23.098728    -14.681887    -0.650280    35.410603    -2.217989    16.407938    -15.069150    13.319675    -3.350565    -46.042313    5.886203    -0.822053    10.509171    9.177049    11.147238    10.651605    -12.026735    
-114.360809    84.422211    -73.219887    -3.342597    24.974895    24.944345    8.380108    42.835556    -4.353141    4.078795    -9.405260    4.719045    -13.603152    -17.180229    2.318760    -8.418472    0.055116    -1.052357    -3.110307    7.098114    -94.037117    24.782064    -4.459496    -20.451017    65.427895    26.793589    36.435261    13.416529    0.772050    6.382853    8.275427    26.488880    87.645493    -30.325262    -7.286098    26.105928    -94.569603    -4.863779    -99.172554    -12.162140    -22.531185    -14.942510    -0.879668    35.034420    -1.223401    16.273117    -14.290490    13.073115    -3.193113    -45.900547    6.100420    -0.843984    10.645396    9.090146    10.994728    10.448734    -12.120249    
-114.411308    84.479500    -72.929283    -3.335109    24.941212    25.030725    8.139491    42.592571    -3.896069    4.171669    -8.949494    4.606293    -13.718633    -17.462029    2.163249    -8.450197    0.095207    -0.828092    -3.194164    7.770123    -94.320656    25.032858    -4.653699    -21.142920    66.850777    26.386852    36.313854    13.493676    0.735977    6.081931    7.958178    26.805666    87.392349    -30.688335    -7.380534    26.219202    -94.738388    -4.884463    -97.758415    -12.225080    -21.931496    -15.087677    -1.044758    34.532524    -0.286850    16.191076    -13.459311    12.895371    -3.043503    -45.756668    6.344819    -0.870264    10.839095    9.025475    10.853215    10.207554    -12.223678    
-114.466141    84.534058    -72.637749    -3.295891    24.887823    25.104744    7.865192    42.393417    -3.442348    4.243813    -8.562791    4.505486    -13.770288    -17.702511    2.032453    -8.500369    0.061585    -0.643884    -3.213868    8.506971    -94.600037    25.398266    -4.872922    -21.633768    68.006325    25.931730    36.065674    13.559735    0.714717    5.788908    7.666618    27.120613    87.153091    -30.891319    -7.425902    26.349279    -94.946541    -4.819064    -96.505440    -12.272468    -21.316696    -15.083009    -1.133020    33.931385    0.528422    16.148420    -12.600840    12.775867    -2.905404    -45.609661    6.604678    -0.898532    11.084444    8.984627    10.701878    9.932091    -12.330970    
